:FULLY-SPECIFIED
:FORCE-ALL-JOINTS-BE-3DOF
:DEGREES
883
root 3.85195 16.5305 30.5312 -10.8246 23.6768 359.35
lfemur -15.8095 19.9983 -19.0116
ltibia 40.4913 0 0
lfoot -12.9326 0.0690648 0
ltoes -1.37978 0 0
rfemur -80.7132 -24.4467 36.5168
rtibia 101.126 0 0
rfoot 19.264 26.205 0
rtoes -8.14353 0 0
lowerback 15.0059 -4.01209 -6.64789
upperback 4.97444 -6.28636 -2.38034
thorax -2.64296 -3.11384 2.26165
lowerneck -7.71871 -3.24517 1.71638
upperneck 4.65939 -4.84264 4.94114
head 2.93726 -2.18998 1.06474
lclavicle -3.12092e-14 -4.77083e-15 0
lhumerus -33.0312 -40.5423 88.3441
lradius 60.5977 0 0
lwrist 19.6497 0 0
lhand 25.8347 11.8689 0
lfingers 7.12502 0 0
lthumb 49.9264 33.1302 0
rclavicle -3.12092e-14 -4.77083e-15 0
rhumerus -49.2556 -29.6742 -46.9493
rradius 72.2992 0 0
rwrist -23.3678 0 0
rhand -47.7649 -54.4874 0
rfingers 7.12502 0 0
rthumb -20.4424 -803.431 0
884
root 3.83176 16.5346 30.6054 -10.1837 24.3842 359.12
lfemur -16.6711 21.2356 -18.9181
ltibia 40.7988 0 0
lfoot -13.1661 0.149687 0
ltoes -1.24809 0 0
rfemur -77.9532 -25.3917 34.4955
rtibia 102.965 0 0
rfoot 19.2075 24.722 0
rtoes -7.49685 0 0
lowerback 14.2916 -4.15363 -6.62411
upperback 4.66321 -6.4301 -2.24595
thorax -2.55769 -3.18528 2.35625
lowerneck -7.72382 -3.46274 1.54677
upperneck 4.7618 -5.12639 4.99862
head 2.98805 -2.32929 1.09752
lclavicle -2.32578e-14 -5.1684e-15 0
lhumerus -34.1137 -41.1667 89.844
lradius 60.7206 0 0
lwrist 18.6769 0 0
lhand 26.1117 11.8206 0
lfingers 7.12502 0 0
lthumb 50.1791 32.9435 0
rclavicle -2.32578e-14 -5.1684e-15 0
rhumerus -49.1033 -28.6142 -48.996
rradius 74.8679 0 0
rwrist -23.3089 0 0
rhand -47.5829 -56.0654 0
rfingers 7.12502 0 0
rthumb -20.2675 -834.024 0
885
root 3.81158 16.5387 30.6795 -9.54275 25.0916 358.889
lfemur -17.5327 22.4728 -18.8245
ltibia 41.1063 0 0
lfoot -13.3995 0.230308 0
ltoes -1.1164 0 0
rfemur -75.1932 -26.3367 32.4742
rtibia 104.804 0 0
rfoot 19.1509 23.239 0
rtoes -6.85016 0 0
lowerback 13.5773 -4.29518 -6.60032
upperback 4.35198 -6.57383 -2.11157
thorax -2.47243 -3.25673 2.45085
lowerneck -7.72894 -3.68032 1.37717
upperneck 4.86422 -5.41014 5.05611
head 3.03885 -2.46861 1.1303
lclavicle -1.53064e-14 -5.56597e-15 0
lhumerus -35.1963 -41.7911 91.3438
lradius 60.8435 0 0
lwrist 17.7041 0 0
lhand 26.3887 11.7723 0
lfingers 7.12502 0 0
lthumb 50.4319 32.7568 0
rclavicle -1.53064e-14 -5.56597e-15 0
rhumerus -48.9509 -27.5543 -51.0426
rradius 77.4366 0 0
rwrist -23.2501 0 0
rhand -47.4009 -57.6434 0
rfingers 7.12502 0 0
rthumb -20.0925 -864.618 0
886
root 3.79139 16.5427 30.7537 -8.90183 25.799 358.659
lfemur -18.3943 23.7101 -18.7309
ltibia 41.4138 0 0
lfoot -13.633 0.31093 0
ltoes -0.984711 0 0
rfemur -72.4333 -27.2818 30.4529
rtibia 106.644 0 0
rfoot 19.0943 21.756 0
rtoes -6.20348 0 0
lowerback 12.863 -4.43673 -6.57654
upperback 4.04076 -6.71757 -1.97718
thorax -2.38716 -3.32817 2.54546
lowerneck -7.73405 -3.89789 1.20756
upperneck 4.96663 -5.69388 5.11359
head 3.08964 -2.60792 1.16308
lclavicle -7.35505e-15 -5.96354e-15 0
lhumerus -36.2788 -42.4155 92.8437
lradius 60.9664 0 0
lwrist 16.7313 0 0
lhand 26.6657 11.724 0
lfingers 7.12502 0 0
lthumb 50.6847 32.5701 0
rclavicle -7.35505e-15 -5.96354e-15 0
rhumerus -48.7986 -26.4943 -53.0893
rradius 80.0053 0 0
rwrist -23.1912 0 0
rhand -47.2189 -59.2214 0
rfingers 7.12502 0 0
rthumb -19.9176 -895.212 0
887
root 3.7712 16.5468 30.8279 -8.26091 26.5064 358.428
lfemur -19.256 24.9474 -18.6374
ltibia 41.7214 0 0
lfoot -13.8665 0.391552 0
ltoes -0.853021 0 0
rfemur -69.6733 -28.2268 28.4315
rtibia 108.483 0 0
rfoot 19.0378 20.273 0
rtoes -5.55679 0 0
lowerback 12.1486 -4.57827 -6.55276
upperback 3.72953 -6.86131 -1.84279
thorax -2.3019 -3.39961 2.64006
lowerneck -7.73917 -4.11546 1.03795
upperneck 5.06904 -5.97763 5.17107
head 3.14043 -2.74724 1.19586
lclavicle 5.96333e-16 -6.36111e-15 0
lhumerus -37.3614 -43.0399 94.3436
lradius 61.0892 0 0
lwrist 15.7585 0 0
lhand 26.9427 11.6757 0
lfingers 7.12502 0 0
lthumb 50.9374 32.3833 0
rclavicle 5.96333e-16 -6.36111e-15 0
rhumerus -48.6463 -25.4343 -55.136
rradius 82.574 0 0
rwrist -23.1323 0 0
rhand -47.0369 -60.7993 0
rfingers 7.12502 0 0
rthumb -19.7427 -925.805 0
888
root 3.75102 16.5509 30.902 -7.61998 27.2138 358.197
lfemur -20.1176 26.1846 -18.5438
ltibia 42.0289 0 0
lfoot -14.0999 0.472173 0
ltoes -0.721331 0 0
rfemur -66.9133 -29.1718 26.4102
rtibia 110.322 0 0
rfoot 18.9812 18.79 0
rtoes -4.9101 0 0
lowerback 11.4343 -4.71981 -6.52897
upperback 3.4183 -7.00504 -1.70841
thorax -2.21664 -3.47106 2.73466
lowerneck -7.74428 -4.33304 0.868344
upperneck 5.17146 -6.26138 5.22856
head 3.19123 -2.88655 1.22864
lclavicle 8.54772e-15 -6.75868e-15 0
lhumerus -38.444 -43.6643 95.8434
lradius 61.2121 0 0
lwrist 14.7857 0 0
lhand 27.2197 11.6274 0
lfingers 7.12502 0 0
lthumb 51.1902 32.1966 0
rclavicle 8.54772e-15 -6.75868e-15 0
rhumerus -48.4939 -24.3744 -57.1826
rradius 85.1427 0 0
rwrist -23.0735 0 0
rhand -46.8549 -62.3773 0
rfingers 7.12502 0 0
rthumb -19.5677 -956.399 0
889
root 3.73083 16.555 30.9762 -6.97906 27.9212 357.967
lfemur -20.9792 27.4219 -18.4503
ltibia 42.3364 0 0
lfoot -14.3334 0.552795 0
ltoes -0.589641 0 0
rfemur -64.1533 -30.1168 24.3889
rtibia 112.161 0 0
rfoot 18.9247 17.307 0
rtoes -4.26342 0 0
lowerback 10.72 -4.86136 -6.50519
upperback 3.10707 -7.14878 -1.57402
thorax -2.13137 -3.5425 2.82926
lowerneck -7.7494 -4.55061 0.698737
upperneck 5.27387 -6.54513 5.28604
head 3.24202 -3.02587 1.26142
lclavicle 1.64991e-14 -7.15625e-15 0
lhumerus -39.5265 -44.2887 97.3433
lradius 61.335 0 0
lwrist 13.8129 0 0
lhand 27.4967 11.5791 0
lfingers 7.12502 0 0
lthumb 51.4429 32.0099 0
rclavicle 1.64991e-14 -7.15625e-15 0
rhumerus -48.3416 -23.3144 -59.2293
rradius 87.7114 0 0
rwrist -23.0146 0 0
rhand -46.6729 -63.9553 0
rfingers 7.12502 0 0
rthumb -19.3928 -986.992 0
890
root 3.72543 16.5451 31.0446 -6.42065 27.9676 358.085
lfemur -21.6317 27.6268 -18.5859
ltibia 42.8363 0 0
lfoot -14.5351 0.407074 0
ltoes -0.229271 0 0
rfemur -60.6328 -28.9987 21.8583
rtibia 111.016 0 0
rfoot 18.4913 14.4814 0
rtoes -2.07829 0 0
lowerback 10.0543 -4.80263 -6.39311
upperback 2.87396 -7.02543 -1.5669
thorax -2.03004 -3.48179 2.71547
lowerneck -7.69355 -4.77522 0.46751
upperneck 5.21196 -6.81665 5.26406
head 3.22752 -3.16853 1.28093
lclavicle 1.15543e-14 -9.67419e-15 0
lhumerus -40.7848 -44.228 98.6866
lradius 61.6044 0 0
lwrist 13.7512 0 0
lhand 27.5552 12.0576 0
lfingers 7.12502 0 0
lthumb 51.4961 32.4576 0
rclavicle 1.15543e-14 -9.67419e-15 0
rhumerus -48.0925 -21.064 -61.8302
rradius 90.2 0 0
rwrist -21.3761 0 0
rhand -42.2003 -58.8354 0
rfingers 7.12502 0 0
rthumb -15.0778 -953.013 0
891
root 3.72003 16.5352 31.113 -5.86224 28.0141 358.204
lfemur -22.2842 27.8318 -18.7215
ltibia 43.3363 0 0
lfoot -14.7368 0.261353 0
ltoes 0.131099 0 0
rfemur -57.1122 -27.8806 19.3277
rtibia 109.87 0 0
rfoot 18.0578 11.6557 0
rtoes 0.106843 0 0
lowerback 9.38863 -4.7439 -6.28102
upperback 2.64085 -6.90208 -1.55977
thorax -1.92872 -3.42109 2.60167
lowerneck -7.63771 -4.99984 0.236284
upperneck 5.15004 -7.08818 5.24208
head 3.21302 -3.31119 1.30043
lclavicle 6.60957e-15 -1.21921e-14 0
lhumerus -42.043 -44.1674 100.03
lradius 61.8737 0 0
lwrist 13.6895 0 0
lhand 27.6137 12.5361 0
lfingers 7.12502 0 0
lthumb 51.5492 32.9053 0
rclavicle 6.60957e-15 -1.21921e-14 0
rhumerus -47.8434 -18.8135 -64.4312
rradius 92.6886 0 0
rwrist -19.7375 0 0
rhand -37.7276 -53.7154 0
rfingers 7.12502 0 0
rthumb -10.7628 -919.033 0
892
root 3.71463 16.5253 31.1815 -5.30383 28.0605 358.322
lfemur -22.9367 28.0367 -18.8571
ltibia 43.8362 0 0
lfoot -14.9385 0.115632 0
ltoes 0.49147 0 0
rfemur -53.5917 -26.7626 16.797
rtibia 108.725 0 0
rfoot 17.6243 8.8301 0
rtoes 2.29197 0 0
lowerback 8.72295 -4.68516 -6.16894
upperback 2.40775 -6.77874 -1.55265
thorax -1.82739 -3.36038 2.48788
lowerneck -7.58186 -5.22445 0.005057
upperneck 5.08813 -7.3597 5.22011
head 3.19852 -3.45385 1.31994
lclavicle 1.6648e-15 -1.47101e-14 0
lhumerus -43.3013 -44.1067 101.373
lradius 62.1431 0 0
lwrist 13.6279 0 0
lhand 27.6722 13.0146 0
lfingers 7.12502 0 0
lthumb 51.6024 33.353 0
rclavicle 1.6648e-15 -1.47101e-14 0
rhumerus -47.5943 -16.5631 -67.0322
rradius 95.1772 0 0
rwrist -18.099 0 0
rhand -33.255 -48.5955 0
rfingers 7.12502 0 0
rthumb -6.44787 -885.054 0
893
root 3.70923 16.5154 31.2499 -4.74542 28.1069 358.44
lfemur -23.5893 28.2416 -18.9926
ltibia 44.3361 0 0
lfoot -15.1402 -0.030089 0
ltoes 0.85184 0 0
rfemur -50.0712 -25.6445 14.2664
rtibia 107.579 0 0
rfoot 17.1909 6.00446 0
rtoes 4.47711 0 0
lowerback 8.05727 -4.62643 -6.05686
upperback 2.17464 -6.65539 -1.54553
thorax -1.72606 -3.29967 2.37409
lowerneck -7.52602 -5.44907 -0.22617
upperneck 5.02622 -7.63122 5.19813
head 3.18402 -3.59651 1.33944
lclavicle -3.27997e-15 -1.7228e-14 0
lhumerus -44.5596 -44.0461 102.716
lradius 62.4125 0 0
lwrist 13.5662 0 0
lhand 27.7306 13.4931 0
lfingers 7.12502 0 0
lthumb 51.6555 33.8008 0
rclavicle -3.27997e-15 -1.7228e-14 0
rhumerus -47.3452 -14.3126 -69.6331
rradius 97.6658 0 0
rwrist -16.4604 0 0
rhand -28.7824 -43.4756 0
rfingers 7.12502 0 0
rthumb -2.13289 -851.075 0
894
root 3.70383 16.5055 31.3183 -4.18701 28.1534 358.559
lfemur -24.2418 28.4466 -19.1282
ltibia 44.8361 0 0
lfoot -15.3419 -0.17581 0
ltoes 1.21221 0 0
rfemur -46.5506 -24.5264 11.7358
rtibia 106.433 0 0
rfoot 16.7575 3.17883 0
rtoes 6.66224 0 0
lowerback 7.39158 -4.5677 -5.94477
upperback 1.94153 -6.53204 -1.5384
thorax -1.62474 -3.23897 2.26029
lowerneck -7.47017 -5.67368 -0.457396
upperneck 4.9643 -7.90275 5.17615
head 3.16952 -3.73917 1.35895
lclavicle -8.22473e-15 -1.9746e-14 0
lhumerus -45.8178 -43.9855 104.06
lradius 62.6818 0 0
lwrist 13.5045 0 0
lhand 27.7891 13.9716 0
lfingers 7.12502 0 0
lthumb 51.7086 34.2485 0
rclavicle -8.22473e-15 -1.9746e-14 0
rhumerus -47.0961 -12.0622 -72.234
rradius 100.154 0 0
rwrist -14.8218 0 0
rhand -24.3097 -38.3556 0
rfingers 7.12502 0 0
rthumb 2.18209 -817.095 0
895
root 3.69843 16.4956 31.3867 -3.6286 28.1998 358.677
lfemur -24.8943 28.6515 -19.2638
ltibia 45.336 0 0
lfoot -15.5436 -0.321531 0
ltoes 1.57258 0 0
rfemur -43.0301 -23.4083 9.20515
rtibia 105.288 0 0
rfoot 16.324 0.353193 0
rtoes 8.84737 0 0
lowerback 6.7259 -4.50897 -5.83269
upperback 1.70842 -6.40869 -1.53128
thorax -1.52341 -3.17826 2.1465
lowerneck -7.41433 -5.8983 -0.688623
upperneck 4.90239 -8.17427 5.15417
head 3.15502 -3.88183 1.37845
lclavicle -1.31695e-14 -2.22639e-14 0
lhumerus -47.0761 -43.9248 105.403
lradius 62.9512 0 0
lwrist 13.4428 0 0
lhand 27.8476 14.4501 0
lfingers 7.12502 0 0
lthumb 51.7618 34.6962 0
rclavicle -1.31695e-14 -2.22639e-14 0
rhumerus -46.847 -9.81172 -74.835
rradius 102.643 0 0
rwrist -13.1833 0 0
rhand -19.8371 -33.2357 0
rfingers 7.12502 0 0
rthumb 6.49707 -783.116 0
